<?xml version="1.0" encoding="utf-8"?>
<!-- Generator: Adobe Illustrator 21.0.2, SVG Export Plug-In . SVG Version: 6.00 Build 0)  -->
<svg version="1.1" id="Calque_1" xmlns="http://www.w3.org/2000/svg" xmlns:xlink="http://www.w3.org/1999/xlink" x="0px" y="0px"
	 viewBox="0 0 850.4 850.4" style="enable-background:new 0 0 850.4 850.4;" xml:space="preserve">
<style type="text/css">
	.st0{fill:#010101;}
</style>
<path class="st0" d="M57,106.2C147.6,203,246.8,283,420.3,289.1C376.7,156.3,554.6-18.4,717.7,128.6c12.6-3.2,81.4-20.3,107.9-42.9
	c-10.4,44.4-42.6,71.1-74.3,98.9c0,0,33.4-6.5,52.3-12.2c16.6-5,31.6-10.7,44.7-16.4c-7.2,12.7-16.9,27.4-30,42.6
	c-18.7,21.6-38,36.8-53.4,47C779.3,656.8,351.7,899.4,2.3,691c68.5,10,165.1,0.4,253.8-74.7c-19.2-1.9-83.9-10.9-129.9-64.7
	c-16.5-19.3-26.1-39.1-31.9-54.7c11.8,0.8,25.2,1,39.9,0.1c13.3-0.8,26.6-2.4,39.9-5c-88.3-25.3-135.6-83.4-142-174.3
	c30,14,61.6,18.4,79.6,22.4C78.1,313.8-6.1,224.5,57,106.2z"/>
</svg>
